Coordinates
version=1
nRows=9
nColumns=38
inDegrees=yes

Units are S.I. units (second, meters, Newtons, ...)
Angles are in degrees.

endheader
time	pelvis_tilt	pelvis_list	pelvis_rotation	pelvis_tx	pelvis_ty	pelvis_tz	hip_flexion_r	hip_adduction_r	hip_rotation_r	knee_angle_r	ankle_angle_r	subtalar_angle_r	mtp_angle_r	hip_flexion_l	hip_adduction_l	hip_rotation_l	knee_angle_l	ankle_angle_l	subtalar_angle_l	mtp_angle_l	lumbar_extension	lumbar_bending	lumbar_rotation	arm_flex_r	arm_add_r	arm_rot_r	elbow_flex_r	pro_sup_r	wrist_flex_r	wrist_dev_r	arm_flex_l	arm_add_l	arm_rot_l	elbow_flex_l	pro_sup_l	wrist_flex_l	wrist_dev_l
      0.64000000	     -5.20667536	      1.42848071	      5.15299886	      0.94656272	      0.92503684	     -0.03270488	     31.99494134	     -3.27900225	     -4.52797666	     -4.27982385	      4.94868983	      0.00000000	      0.00000000	     -6.25634765	      3.22221764	     -7.16354720	     -6.93232865	     16.25371314	      0.00000000	      0.00000000	     -2.11720950	     -3.72758269	     -0.60011312	    -13.38407621	     -8.06635290	    -11.65374154	     30.90467362	    111.32962622	      0.00000000	      0.00000000	     12.66994681	    -12.39443045	     -0.54686047	     46.93619443	    108.28916149	      0.00000000	      0.00000000
      0.64500000	     -5.23913880	      1.42659788	      5.21743131	      0.95166866	      0.92417850	     -0.03235097	     32.07772983	     -3.29431667	     -4.51167197	     -4.30246688	      4.95068839	      0.00000000	      0.00000000	     -6.42827162	      3.15602003	     -7.12681588	     -7.12157221	     16.27737539	      0.00000000	      0.00000000	     -2.09401552	     -3.73433909	     -0.49357060	    -13.22647043	     -8.04350211	    -11.62691378	     30.93297560	    111.33829853	      0.00000000	      0.00000000	     12.52756120	    -12.32481127	     -0.53177005	     46.90212750	    108.28358645	      0.00000000	      0.00000000
      0.65000000	     -5.19001261	      1.29959378	      5.24404057	      0.95668073	      0.92340900	     -0.03193620	     32.11462683	     -3.16421077	     -4.39250878	     -4.49793058	      5.13783008	      0.00000000	      0.00000000	     -6.47350759	      2.92609920	     -7.19090397	     -7.76398107	     16.91541154	      0.00000000	      0.00000000	     -2.17129939	     -3.58118457	     -0.51148980	    -12.84520373	     -8.11052474	    -11.37897571	     30.68442701	    111.44819379	      0.00000000	      0.00000000	     12.25185348	    -12.32027199	     -0.59249382	     46.94736331	    108.17548831	      0.00000000	      0.00000000
      0.65500000	     -5.16926480	      1.26010589	      5.28906872	      0.96186649	      0.92267205	     -0.03157541	     32.18341010	     -3.13299606	     -4.22046555	     -4.79944366	      5.13967216	      0.00000000	      0.00000000	     -6.63076019	      2.80979314	     -7.07675029	     -8.10612812	     16.93593126	      0.00000000	      0.00000000	     -2.21271633	     -3.52761295	     -0.44564292	    -12.61488678	     -8.12190323	    -11.28372953	     30.65983699	    111.49196895	      0.00000000	      0.00000000	     12.05184731	    -12.26281528	     -0.61281424	     46.89018234	    108.13766511	      0.00000000	      0.00000000
      0.66000000	     -5.11651198	      1.19557070	      5.33085143	      0.96703195	      0.92196448	     -0.03117571	     32.24536473	     -3.07295497	     -3.96942101	     -5.26288575	      5.19080887	      0.00000000	      0.00000000	     -6.78551437	      2.65258037	     -6.97459449	     -8.52639778	     17.03645020	      0.00000000	      0.00000000	     -2.29324093	     -3.43640458	     -0.39479566	    -12.33402666	     -8.14987202	    -11.16491333	     30.62150800	    111.54010700	      0.00000000	      0.00000000	     11.83587795	    -12.22601096	     -0.65510693	     46.81341537	    108.09608587	      0.00000000	      0.00000000
      0.66500000	     -5.02438020	      1.13976607	      5.37090286	      0.97245732	      0.92131206	     -0.03074213	     32.23978759	     -3.00971931	     -3.68819293	     -5.80240584	      5.51280422	      0.00000000	      0.00000000	     -6.96805400	      2.48292707	     -6.99461046	     -9.02092928	     17.40795806	      0.00000000	      0.00000000	     -2.36392243	     -3.37161427	     -0.38570018	    -12.02196018	     -8.20620756	    -10.81364460	     30.38643364	    111.68913239	      0.00000000	      0.00000000	     11.56972336	    -12.14326902	     -0.84128578	     46.75000334	    107.97582297	      0.00000000	      0.00000000
      0.67000000	     -4.97023781	      1.07150516	      5.41997990	      0.97783389	      0.92064366	     -0.03032347	     32.30866267	     -2.94700708	     -3.42378313	     -6.45225887	      5.46905209	      0.00000000	      0.00000000	     -7.14455968	      2.32812941	     -6.85997849	     -9.41318083	     17.39851343	      0.00000000	      0.00000000	     -2.41498386	     -3.28563306	     -0.34456064	    -11.78065006	     -8.23073196	    -10.71832200	     30.40325715	    111.72916328	      0.00000000	      0.00000000	     11.32261068	    -12.09094288	     -0.88368138	     46.63788509	    107.94623892	      0.00000000	      0.00000000
      0.67500000	     -4.89710972	      0.92045552	      5.41752341	      0.98322142	      0.92017123	     -0.02983264	     32.42076573	     -2.77982802	     -3.31300883	     -7.26726953	      5.26081181	      0.00000000	      0.00000000	     -7.23566823	      2.05617560	     -6.97759174	    -10.01138208	     17.66402211	      0.00000000	      0.00000000	     -2.46646560	     -3.11360078	     -0.31723510	    -11.41271442	     -8.36423315	    -10.09951112	     30.11006456	    111.98860923	      0.00000000	      0.00000000	     11.05364572	    -11.92958771	     -1.32433858	     46.44589171	    107.75217204	      0.00000000	      0.00000000
      0.68000000	     -4.82441301	      0.82803430	      5.42364444	      0.98870316	      0.91971222	     -0.02935996	     32.56498518	     -2.67513865	     -3.24737492	     -8.18300635	      4.96629607	      0.00000000	      0.00000000	     -7.41314593	      1.86997636	     -6.87922494	    -10.45251983	     17.62934262	      0.00000000	      0.00000000	     -2.52818591	     -2.99624361	     -0.23578332	    -11.14864089	     -8.37986330	     -9.99950862	     30.14324226	    112.02925391	      0.00000000	      0.00000000	     10.77944575	    -11.87226882	     -1.37067112	     46.29308693	    107.72380609	      0.00000000	      0.00000000
